<?xml version="1.0" encoding="UTF-8"?>
<svg version="1.1" xmlns="http://www.w3.org/2000/svg" width="136" height="136">
<path d="M0 0 C1.56657349 0.00749268 1.56657349 0.00749268 3.16479492 0.01513672 C21.38640853 0.42196311 36.43061045 7.68262743 49.3125 20.5 C50.01246094 21.16515625 50.71242188 21.8303125 51.43359375 22.515625 C55.81711534 26.99314023 58.80295885 31.83193765 61.625 37.375 C62.11347412 38.32838257 62.11347412 38.32838257 62.61181641 39.30102539 C67.12616999 48.63374128 68.87807343 57.86136641 68.8125 68.1875 C68.80750488 69.23188232 68.80250977 70.27626465 68.79736328 71.35229492 C68.39053689 89.57390853 61.12987257 104.61811045 48.3125 117.5 C47.31476563 118.54994141 47.31476563 118.54994141 46.296875 119.62109375 C41.81935977 124.00461534 36.98056235 126.99045885 31.4375 129.8125 C30.48411743 130.30097412 30.48411743 130.30097412 29.51147461 130.79931641 C20.17875872 135.31366999 10.95113359 137.06557343 0.625 137 C-0.41938232 136.99500488 -1.46376465 136.99000977 -2.53979492 136.98486328 C-20.76140853 136.57803689 -35.80561045 129.31737257 -48.6875 116.5 C-49.38746094 115.83484375 -50.08742188 115.1696875 -50.80859375 114.484375 C-55.19211534 110.00685977 -58.17795885 105.16806235 -61 99.625 C-61.32564941 98.98941162 -61.65129883 98.35382324 -61.98681641 97.69897461 C-66.50116999 88.36625872 -68.25307343 79.13863359 -68.1875 68.8125 C-68.18250488 67.76811768 -68.17750977 66.72373535 -68.17236328 65.64770508 C-67.76553689 47.42609147 -60.50487257 32.38188955 -47.6875 19.5 C-47.02234375 18.80003906 -46.3571875 18.10007812 -45.671875 17.37890625 C-41.19435977 12.99538466 -36.35556235 10.00954115 -30.8125 7.1875 C-30.17691162 6.86185059 -29.54132324 6.53620117 -28.88647461 6.20068359 C-19.55375872 1.68633001 -10.32613359 -0.06557343 0 0 Z " fill="#00EF8B" transform="translate(67.6875,-0.5)"/>
<path d="M0 0 C1.16015625 0.00322266 2.3203125 0.00644531 3.515625 0.00976562 C5.32546875 0.02233398 5.32546875 0.02233398 7.171875 0.03515625 C9.00492188 0.04192383 9.00492188 0.04192383 10.875 0.04882812 C13.89064592 0.06060799 16.90626665 0.07854324 19.921875 0.09765625 C19.921875 6.69765625 19.921875 13.29765625 19.921875 20.09765625 C18.06820312 20.13503906 16.21453125 20.17242187 14.3046875 20.2109375 C11.88539575 20.2765772 9.46612583 20.34302521 7.046875 20.41015625 C5.82355469 20.43271484 4.60023437 20.45527344 3.33984375 20.47851562 C1.58994141 20.53168945 1.58994141 20.53168945 -0.1953125 20.5859375 C-1.81348877 20.62521362 -1.81348877 20.62521362 -3.46435547 20.6652832 C-4.32689941 20.80796631 -5.18944336 20.95064941 -6.078125 21.09765625 C-8.43167839 24.21550738 -8.43167839 24.21550738 -9.078125 29.09765625 C-2.808125 29.09765625 3.461875 29.09765625 9.921875 29.09765625 C9.921875 35.36765625 9.921875 41.63765625 9.921875 48.09765625 C3.651875 48.09765625 -2.618125 48.09765625 -9.078125 48.09765625 C-8.954375 49.99515625 -8.830625 51.89265625 -8.703125 53.84765625 C-8.72124197 62.15428527 -11.1660147 69.10016259 -17.046875 75.109375 C-24.58339497 81.09511105 -32.66585876 82.15943952 -42.078125 81.09765625 C-50.60155029 78.48582689 -55.42331623 73.43384391 -59.953125 66.03515625 C-62.2968511 59.83200094 -62.12658367 51.99193133 -60.421875 45.66015625 C-57.19992398 38.54964365 -51.28862503 32.98185626 -44.078125 30.09765625 C-40.62722497 29.00273173 -37.43579357 28.99594246 -33.828125 29.03515625 C-32.75046875 29.04417969 -31.6728125 29.05320312 -30.5625 29.0625 C-29.74265625 29.07410156 -28.9228125 29.08570312 -28.078125 29.09765625 C-28.14 27.94265625 -28.201875 26.78765625 -28.265625 25.59765625 C-28.22793159 18.47360261 -25.67602955 12.93117947 -20.890625 7.703125 C-14.65794007 2.18236313 -8.19778626 -0.04018523 0 0 Z " fill="#FCFEFD" transform="translate(87.078125,27.90234375)"/>
<path d="M0 0 C1.16015625 0.00322266 2.3203125 0.00644531 3.515625 0.00976562 C5.32546875 0.02233398 5.32546875 0.02233398 7.171875 0.03515625 C9.00492188 0.04192383 9.00492188 0.04192383 10.875 0.04882812 C13.89064592 0.06060799 16.90626665 0.07854324 19.921875 0.09765625 C19.921875 6.69765625 19.921875 13.29765625 19.921875 20.09765625 C18.06820312 20.13503906 16.21453125 20.17242187 14.3046875 20.2109375 C11.88539575 20.2765772 9.46612583 20.34302521 7.046875 20.41015625 C5.82355469 20.43271484 4.60023437 20.45527344 3.33984375 20.47851562 C1.58994141 20.53168945 1.58994141 20.53168945 -0.1953125 20.5859375 C-1.27409668 20.61212158 -2.35288086 20.63830566 -3.46435547 20.6652832 C-4.32689941 20.80796631 -5.18944336 20.95064941 -6.078125 21.09765625 C-8.43167839 24.21550738 -8.43167839 24.21550738 -9.078125 29.09765625 C-15.348125 29.09765625 -21.618125 29.09765625 -28.078125 29.09765625 C-28.078125 19.95189319 -27.0755598 14.46016627 -20.890625 7.703125 C-14.65794007 2.18236313 -8.19778626 -0.04018523 0 0 Z " fill="#F5FEFA" transform="translate(87.078125,27.90234375)"/>
<path d="M0 0 C6.27 0 12.54 0 19 0 C19 6.27 19 12.54 19 19 C12.73 19 6.46 19 0 19 C0 12.73 0 6.46 0 0 Z " fill="#FFFFFF" transform="translate(78,57)"/>
<path d="M0 0 C6.27 0 12.54 0 19 0 C19 6.27 19 12.54 19 19 C12.73 19 6.46 19 0 19 C0 12.73 0 6.46 0 0 Z " fill="#00EF8B" transform="translate(59,57)"/>
<path d="M0 0 C0.61839323 9.00105708 0.61839323 9.00105708 -1.625 12.625 C-4.72904866 14.42208081 -6.46656253 14.58890625 -10 14 C-12.375 12.375 -12.375 12.375 -14 10 C-14.58890625 6.46656253 -14.42208081 4.72904866 -12.625 1.625 C-8.5952124 -0.86963042 -4.61933486 -0.31735888 0 0 Z " fill="#04EF8C" transform="translate(59,76)"/>
</svg>
